<?xml version="1.0" encoding="UTF-8"?>
<svg version="1.1" xmlns="http://www.w3.org/2000/svg" width="500" height="500">
<path d="M0 0 C165 0 330 0 500 0 C500 165 500 330 500 500 C335 500 170 500 0 500 C0 335 0 170 0 0 Z " fill="#FEFEFE" transform="translate(0,0)"/>
<path d="M0 0 C0.8677002 -0.00953201 1.73540039 -0.01906403 2.62939453 -0.02888489 C3.55864746 -0.02797348 4.48790039 -0.02706207 5.4453125 -0.02612305 C6.40679199 -0.03040817 7.36827148 -0.0346933 8.35888672 -0.03910828 C10.38964043 -0.04484563 12.4204147 -0.04535622 14.45117188 -0.04101562 C17.55894956 -0.03785336 20.66577732 -0.06133039 23.7734375 -0.08666992 C25.74739463 -0.08894273 27.72135432 -0.0896465 29.6953125 -0.08862305 C30.62456543 -0.09783279 31.55381836 -0.10704254 32.51123047 -0.11653137 C38.91363807 -0.07057166 38.91363807 -0.07057166 42.15649414 1.63427734 C44.87008914 4.78272231 44.02261673 8.55409503 43.8984375 12.5012207 C42.48523202 28.75308374 42.48523202 28.75308374 39.15234375 33.1418457 C35.37722985 35.84501368 31.26127141 35.40365128 26.83984375 35.37231445 C26.08942307 35.37089951 25.33900238 35.36948456 24.56584167 35.36802673 C22.1714579 35.3624338 19.77716797 35.34988264 17.3828125 35.3371582 C15.75846489 35.33214229 14.13411582 35.32757954 12.50976562 35.32348633 C8.52991181 35.31246669 4.55012806 35.29520694 0.5703125 35.2746582 C0.5703125 36.5946582 0.5703125 37.9146582 0.5703125 39.2746582 C2.09168823 39.25109253 2.09168823 39.25109253 3.64379883 39.22705078 C7.40641337 39.17275502 11.16899328 39.13830969 14.93188477 39.10986328 C16.56052473 39.09477577 18.18912406 39.07430314 19.81762695 39.04833984 C22.15846785 39.01195372 24.49877169 38.994932 26.83984375 38.98168945 C27.56806839 38.9662056 28.29629303 38.95072174 29.04658508 38.93476868 C34.05713718 38.93310021 34.05713718 38.93310021 36.27494812 40.40922546 C38.15195534 43.11227241 37.86260919 45.21346073 37.7578125 48.4621582 C37.71720703 50.09217773 37.71720703 50.09217773 37.67578125 51.75512695 C37.64097656 52.58657227 37.60617187 53.41801758 37.5703125 54.2746582 C30.50450698 54.3252935 23.4387481 54.36036441 16.37280273 54.38452148 C13.96816255 54.39459021 11.56353464 54.40824605 9.15893555 54.42553711 C5.70618666 54.44974694 2.2535994 54.46113253 -1.19921875 54.4699707 C-2.81652641 54.48545456 -2.81652641 54.48545456 -4.46650696 54.50125122 C-5.96772346 54.50147781 -5.96772346 54.50147781 -7.49926758 54.50170898 C-8.38085037 54.50615021 -9.26243317 54.51059143 -10.17073059 54.51516724 C-12.4296875 54.2746582 -12.4296875 54.2746582 -15.4296875 52.2746582 C-16.7508003 42.89321517 -14.93517284 33.03730152 -13.40332031 23.76635742 C-13.04959189 21.61872054 -12.71516188 19.468666 -12.3828125 17.31762695 C-10.45178285 5.20353035 -10.45178285 5.20353035 -8.4296875 2.2746582 C-5.5372963 0.52157694 -3.36062007 0.02035432 0 0 Z " fill="#8AAB27" transform="translate(338.4296875,224.725341796875)"/>
<path d="M0 0 C1.2367598 -0.00956978 1.2367598 -0.00956978 2.49850464 -0.01933289 C3.38603424 -0.02044571 4.27356384 -0.02155853 5.18798828 -0.02270508 C6.10411896 -0.02603348 7.02024963 -0.02936188 7.96414185 -0.03279114 C9.90252175 -0.03785409 11.84091037 -0.04019966 13.77929688 -0.04003906 C16.73989289 -0.04222275 19.70011459 -0.06037742 22.66064453 -0.0793457 C24.54475784 -0.08228033 26.42887292 -0.08426466 28.31298828 -0.08520508 C29.63820999 -0.09598335 29.63820999 -0.09598335 30.99020386 -0.10697937 C35.40371458 -0.09063541 38.87014505 0.06553201 42.88330078 2.14526367 C43.22365052 9.50690242 42.87983541 16.53041622 41.57080078 23.77026367 C41.3942395 24.79990234 41.3942395 24.79990234 41.21411133 25.8503418 C40.51372305 29.44593715 39.97022931 31.99584677 36.88330078 34.14526367 C33.34325432 35.32527916 30.06057519 35.37438713 26.37158203 35.46166992 C25.64335739 35.48245102 24.91513275 35.50323212 24.1648407 35.52464294 C21.84192203 35.58995113 19.51889172 35.64893605 17.19580078 35.70776367 C15.61961743 35.75096673 14.04344531 35.79458159 12.46728516 35.83862305 C8.60607103 35.94561327 4.74474476 36.04693328 0.88330078 36.14526367 C0.55330078 37.13526367 0.22330078 38.12526367 -0.11669922 39.14526367 C1.35138184 39.121698 1.35138184 39.121698 2.84912109 39.09765625 C6.48689516 39.04327797 10.12463342 39.00888519 13.76269531 38.98046875 C15.335999 38.96540003 16.9092608 38.94494122 18.48242188 38.91894531 C20.74636174 38.88247629 23.00974535 38.86551859 25.27392578 38.85229492 C25.97511536 38.83681107 26.67630493 38.82132721 27.39874268 38.80537415 C30.29288441 38.8043811 32.49151161 38.94340467 35.08538818 40.27983093 C36.88330078 42.14526367 36.88330078 42.14526367 37.27392578 45.06323242 C37.22751953 46.14217773 37.18111328 47.22112305 37.13330078 48.33276367 C37.09720703 49.41944336 37.06111328 50.50612305 37.02392578 51.62573242 C36.97751953 52.45717773 36.93111328 53.28862305 36.88330078 54.14526367 C29.81753409 54.2212162 22.75187234 54.27382228 15.68579102 54.31005859 C13.2811286 54.32516183 10.8764938 54.34564576 8.47192383 54.37158203 C5.01913648 54.40789718 1.56671274 54.42497468 -1.88623047 54.43823242 C-3.50353813 54.46145821 -3.50353813 54.46145821 -5.15351868 54.4851532 C-6.15432968 54.48537979 -7.15514069 54.48560638 -8.1862793 54.48583984 C-9.50865349 54.4958326 -9.50865349 54.4958326 -10.85774231 54.50602722 C-13.11669922 54.14526367 -13.11669922 54.14526367 -14.90940857 52.88343811 C-16.40456496 50.73081429 -16.45803739 49.59521123 -16.36376953 46.99389648 C-16.3362561 46.19584595 -16.30874268 45.39779541 -16.28039551 44.57556152 C-16.03183002 40.88526308 -15.6529203 37.23300966 -15.16357422 33.56713867 C-15.06208069 32.79267395 -14.96058716 32.01820923 -14.85601807 31.22027588 C-14.64072293 29.5997762 -14.42208192 27.97971773 -14.20019531 26.36010742 C-13.86588909 23.88927606 -13.55558819 21.41612398 -13.24560547 18.94213867 C-13.03222914 17.35860692 -12.81743474 15.77526545 -12.60107422 14.19213867 C-12.51235046 13.45872253 -12.42362671 12.7253064 -12.33221436 11.96966553 C-11.65830015 7.30150061 -10.49152017 4.46344427 -7.11669922 1.14526367 C-4.39850995 0.23920058 -2.79529956 0.01470924 0 0 Z " fill="#89AA26" transform="translate(167.11669921875,224.854736328125)"/>
<path d="M0 0 C1.7715873 -0.0010952 1.7715873 -0.0010952 3.57896423 -0.00221252 C6.80415059 0.00066646 10.02824085 0.02567485 13.25320959 0.06065726 C16.62840317 0.09199364 20.00362016 0.09485719 23.37893677 0.1007843 C29.76444217 0.11630157 36.14951763 0.15730067 42.53483403 0.20753175 C49.80684164 0.26349172 57.07887019 0.29092832 64.35103965 0.31600893 C79.30474091 0.36821894 94.25804027 0.4561193 109.21142578 0.56762695 C107.03542847 7.93254093 107.03542847 7.93254093 104.21142578 10.56762695 C101.36091614 11.05296326 101.36091614 11.05296326 97.84741211 11.03417969 C96.53206985 11.03775986 95.2167276 11.04134003 93.86152649 11.04502869 C93.15833094 11.03773176 92.45513538 11.03043484 91.73063087 11.02291679 C89.52243549 11.00101218 87.31560907 11.00475304 85.10734558 11.01539612 C79.61962782 11.0370616 74.13221192 11.01979771 68.64453125 10.99389648 C64.01266398 10.97241508 59.38167605 10.97067022 54.74982262 10.99681282 C52.58465609 11.0011384 50.42104897 10.97659551 48.25605774 10.95127869 C40.80392343 10.94371849 34.8689846 11.28249937 29.21142578 16.56762695 C27.36715803 18.74912721 27.36715803 18.74912721 26.21142578 21.06762695 C23.6655803 25.82433824 20.05654066 28.36743747 15.21142578 30.56762695 C11.79171401 31.19773791 8.49172293 31.15542252 5.02392578 31.0559082 C4.08081543 31.04883347 3.13770508 31.04175873 2.16601562 31.0344696 C-0.8196855 31.00668146 -3.80344864 30.94397346 -6.78857422 30.88012695 C-8.82370321 30.8550239 -10.85886187 30.83221426 -12.89404297 30.81176758 C-17.85962319 30.75690599 -22.82377117 30.67074307 -27.78857422 30.56762695 C-26.97073747 24.78661815 -25.07618843 20.24297094 -22.60107422 15.00512695 C-22.22660156 14.16788086 -21.85212891 13.33063477 -21.46630859 12.46801758 C-20.89299805 11.24695313 -20.89299805 11.24695313 -20.30810547 10.0012207 C-19.96884033 9.26959717 -19.6295752 8.53797363 -19.2800293 7.78417969 C-14.03011208 -0.01807902 -8.87195879 -0.14369793 0 0 Z " fill="#88AA24" transform="translate(134.78857421875,191.432373046875)"/>
<path d="M0 0 C1.39538254 -0.05472088 2.79140897 -0.09311538 4.1875 -0.125 C4.96480469 -0.14820313 5.74210937 -0.17140625 6.54296875 -0.1953125 C9.34214116 0.02719723 11.45262765 0.85074143 14 2 C14.02712351 4.39591038 14.0468982 6.79150957 14.0625 9.1875 C14.07087891 9.86103516 14.07925781 10.53457031 14.08789062 11.22851562 C14.10654779 15.05323378 13.75942257 18.20288716 13 22 C20.59 22 28.18 22 36 22 C35 32 35 32 33 36 C28.5587017 38.70044524 23.70996887 38.22806566 18.6875 38.125 C17.85154297 38.11597656 17.01558594 38.10695312 16.15429688 38.09765625 C14.10274031 38.07420989 12.05133223 38.03834266 10 38 C9.95101563 38.90621094 9.90203125 39.81242187 9.8515625 40.74609375 C9.77679688 41.96425781 9.70203125 43.18242187 9.625 44.4375 C9.55539062 45.63246094 9.48578125 46.82742187 9.4140625 48.05859375 C8.95558402 52.42278988 7.95193698 56.71628358 7 61 C14.59 61 22.18 61 30 61 C30 70 30 70 28 74 C23.03831068 77.30779288 17.07850234 76.33276765 11.26660156 76.31567383 C9.00797402 76.31251117 6.75065336 76.33598804 4.4921875 76.36132812 C3.05729332 76.36360094 1.62239562 76.3643047 0.1875 76.36328125 C-1.11832031 76.36626221 -2.42414063 76.36924316 -3.76953125 76.37231445 C-7 76 -7 76 -8.93798828 74.62939453 C-13.11451779 68.22154213 -7.84452592 51.44648029 -6.71875 44.11328125 C-6.60466797 43.36860596 -6.49058594 42.62393066 -6.37304688 41.85668945 C-6 40 -6 40 -5 38 C-9.95 38 -14.9 38 -20 38 C-20.29047722 32.38410702 -20.10842092 28.90174068 -17 24 C-14.23547967 22.61773984 -11.9538637 22.90474613 -8.875 22.9375 C-7.77929688 22.94652344 -6.68359375 22.95554688 -5.5546875 22.96484375 C-4.71164062 22.97644531 -3.86859375 22.98804688 -3 23 C-2.86722656 21.84242188 -2.73445313 20.68484375 -2.59765625 19.4921875 C-2.41934918 17.95311592 -2.24095938 16.41405393 -2.0625 14.875 C-1.97548828 14.11445313 -1.88847656 13.35390625 -1.79882812 12.5703125 C-1.3084513 8.35670423 -0.74097022 4.178805 0 0 Z " fill="#8AAB27" transform="translate(286,203)"/>
<path d="M0 0 C1.29139893 0.0165564 1.29139893 0.0165564 2.60888672 0.03344727 C3.3567041 0.04303467 4.10452148 0.05262207 4.875 0.0625 C4.29013314 10.77146587 2.97897847 21.27074919 1.4375 31.875 C0.99848739 34.92277937 0.5629349 37.97103849 0.12890625 41.01953125 C0.02180328 41.76437775 -0.08529968 42.50922424 -0.19564819 43.27664185 C-0.74008728 47.11621412 -1.23740051 50.95512236 -1.66064453 54.81005859 C-1.74540543 55.57839523 -1.83016632 56.34673187 -1.91749573 57.13835144 C-2.0744728 58.59282008 -2.22523424 60.0479788 -2.36851501 61.50386047 C-2.94219921 66.84728507 -4.15280229 70.60420343 -7.125 75.0625 C-11.00102274 77.00051137 -15.85763104 76.11212057 -20.125 76.0625 C-19.46258378 66.19799858 -18.14943951 56.46723129 -16.75 46.6875 C-16.29448246 43.49103968 -15.84015287 40.29441276 -15.38671875 37.09765625 C-15.27572342 36.31734543 -15.16472809 35.53703461 -15.05036926 34.733078 C-14.40462023 30.15943764 -13.81015015 25.58363126 -13.26953125 20.99609375 C-13.14690918 19.98530762 -13.02428711 18.97452148 -12.89794922 17.93310547 C-12.68165786 16.12249176 -12.47789873 14.31031548 -12.28955078 12.49658203 C-11.68859079 7.58390907 -10.79577122 4.66281496 -7.125 1.0625 C-4.60024538 -0.19987731 -2.81299534 -0.03606404 0 0 Z " fill="#89AA26" transform="translate(233.125,202.9375)"/>
<path d="M0 0 C4.95 0 9.9 0 15 0 C15.12164233 6.16780149 14.74608856 11.93369338 13.7578125 18.015625 C13.62937958 18.83448181 13.50094666 19.65333862 13.36862183 20.49700928 C13.09791615 22.21175818 12.82379906 23.92597176 12.54638672 25.63964844 C12.12407654 28.25572052 11.71562033 30.87369879 11.30859375 33.4921875 C11.04248694 35.16679722 10.77558751 36.84128122 10.5078125 38.515625 C10.3868924 39.2927887 10.26597229 40.06995239 10.14138794 40.8706665 C8.49362122 50.91550111 8.49362122 50.91550111 5.203125 53.3046875 C2.60573947 54.12442974 0.46926013 54.19655948 -2.25 54.125 C-3.08885742 54.1029248 -3.92771484 54.08084961 -4.79199219 54.05810547 C-5.52063477 54.03893066 -6.24927734 54.01975586 -7 54 C-6.34591048 44.30580759 -5.1261486 34.70535463 -3.84326172 25.07910156 C-3.49703437 22.47771766 -3.15643878 19.87563763 -2.81640625 17.2734375 C-2.59668504 15.60933128 -2.37664469 13.94526716 -2.15625 12.28125 C-2.05517944 11.50833618 -1.95410889 10.73542236 -1.84997559 9.93908691 C-1.39533141 6.54921606 -0.8310502 3.32420078 0 0 Z " fill="#8AAB28" transform="translate(245,225)"/>
<path d="M0 0 C1.50433594 0.01353516 1.50433594 0.01353516 3.0390625 0.02734375 C3.80992187 0.03894531 4.58078125 0.05054688 5.375 0.0625 C5.06512383 2.31286286 4.75200182 4.56277894 4.4375 6.8125 C4.17646484 8.69195312 4.17646484 8.69195312 3.91015625 10.609375 C3.375 14.0625 3.375 14.0625 2.375 18.0625 C-2.575 18.0625 -7.525 18.0625 -12.625 18.0625 C-12.13436186 6.90048242 -12.13436186 6.90048242 -9.6875 2.875 C-6.3449366 -0.0624042 -4.37407586 -0.05086135 0 0 Z " fill="#8BAC2A" transform="translate(258.625,202.9375)"/>
<path d="M0 0 C0.99 0 1.98 0 3 0 C3 1.65 3 3.3 3 5 C5.64 5 8.28 5 11 5 C10.67 8.63 10.34 12.26 10 16 C6.37 16 2.74 16 -1 16 C-0.67 10.72 -0.34 5.44 0 0 Z " fill="#8FAE31" transform="translate(305,287)"/>
<path d="M0 0 C3.63 0 7.26 0 11 0 C11.09202608 3.95712151 10.78947104 7.0526448 10 11 C6.37 11 2.74 11 -1 11 C-0.67 7.37 -0.34 3.74 0 0 Z " fill="#8DAD2D" transform="translate(229,292)"/>
<path d="M0 0 C1.51400391 0.01740234 1.51400391 0.01740234 3.05859375 0.03515625 C4.07050781 0.04417969 5.08242188 0.05320312 6.125 0.0625 C7.29869141 0.07990234 7.29869141 0.07990234 8.49609375 0.09765625 C8.33109375 0.69191406 8.16609375 1.28617187 7.99609375 1.8984375 C7.37831777 4.23979637 7.37831777 4.23979637 7.49609375 7.28515625 C7.49609375 8.21328125 7.49609375 9.14140625 7.49609375 10.09765625 C6.49609375 11.09765625 6.49609375 11.09765625 3.9921875 11.1953125 C2.47818359 11.17791016 2.47818359 11.17791016 0.93359375 11.16015625 C-0.07832031 11.15113281 -1.09023438 11.14210938 -2.1328125 11.1328125 C-2.91527344 11.12121094 -3.69773438 11.10960937 -4.50390625 11.09765625 C-4.36347748 9.45135297 -4.21641296 7.80561446 -4.06640625 6.16015625 C-3.98519531 5.24363281 -3.90398437 4.32710938 -3.8203125 3.3828125 C-3.37885871 0.19453512 -3.24881473 0.12670884 0 0 Z " fill="#8BAC2A" transform="translate(257.50390625,291.90234375)"/>
<path d="M0 0 C1.51400391 0.01740234 1.51400391 0.01740234 3.05859375 0.03515625 C4.07050781 0.04417969 5.08242187 0.05320312 6.125 0.0625 C7.29869141 0.07990234 7.29869141 0.07990234 8.49609375 0.09765625 C8.33109375 0.69191406 8.16609375 1.28617187 7.99609375 1.8984375 C7.37831777 4.23979637 7.37831777 4.23979637 7.49609375 7.28515625 C7.49609375 8.21328125 7.49609375 9.14140625 7.49609375 10.09765625 C6.49609375 11.09765625 6.49609375 11.09765625 4.2109375 11.1953125 C2.83615234 11.17791016 2.83615234 11.17791016 1.43359375 11.16015625 C0.51449219 11.15113281 -0.40460938 11.14210938 -1.3515625 11.1328125 C-2.06183594 11.12121094 -2.77210938 11.10960937 -3.50390625 11.09765625 C-3.53078776 9.45191059 -3.55024748 7.80604212 -3.56640625 6.16015625 C-3.57800781 5.24363281 -3.58960938 4.32710938 -3.6015625 3.3828125 C-3.46380636 0.15931892 -3.23579438 0.12620103 0 0 Z " fill="#8AAB28" transform="translate(244.50390625,291.90234375)"/>
<path d="M0 0 C2.28748276 0 4.52404348 0.09771342 6.80078125 0.3125 C5.95571083 7.74911972 5.95571083 7.74911972 2.80078125 10.3125 C-0.22726131 10.64596117 -3.16599002 10.54142292 -6.19921875 10.3125 C-4.82392737 0.68546037 -4.82392737 0.68546037 0 0 Z " fill="#8AAB28" transform="translate(271.19921875,191.6875)"/>
<path d="M0 0 C3.63 0 7.26 0 11 0 C11 0.99 11 1.98 11 3 C8.36 3 5.72 3 3 3 C3 4.65 3 6.3 3 8 C5.31 8 7.62 8 10 8 C10 8.99 10 9.98 10 11 C7.36 11 4.72 11 2 11 C1.67 12.65 1.34 14.3 1 16 C0.01 16 -0.98 16 -2 16 C-1.34 10.72 -0.68 5.44 0 0 Z " fill="#8EAE30" transform="translate(185,292)"/>
<path d="M0 0 C2.27350721 0.00714939 4.47667088 0.12230818 6.734375 0.3828125 C5.80791795 4.48060331 4.61302354 7.2162991 1.734375 10.3828125 C-1.32634101 10.89996796 -4.19188906 10.73747434 -7.265625 10.3828125 C-6.26066215 5.9377845 -5.09484401 0.86085295 0 0 Z " fill="#8AAB28" transform="translate(289.265625,191.6171875)"/>
<path d="M0 0 C-0.5545374 3.32722441 -1.24013043 6.1013913 -3 9 C-6.21451269 10.60725635 -9.43612536 10.05748185 -13 10 C-11.92420404 0.53299558 -8.9255675 -0.67362774 0 0 Z " fill="#8AAB27" transform="translate(261,192)"/>
<path d="M0 0 C7.92 0 15.84 0 24 0 C23.67 1.32 23.34 2.64 23 4 C15.41 4 7.82 4 0 4 C0 2.68 0 1.36 0 0 Z " fill="#EEF3E1" transform="translate(170,241)"/>
<path d="M0 0 C0.99 0 1.98 0 3 0 C3 1.65 3 3.3 3 5 C4.32 5 5.64 5 7 5 C7 5.99 7 6.98 7 8 C5.35 8 3.7 8 2 8 C2 9.65 2 11.3 2 13 C3.32 13 4.64 13 6 13 C6 13.99 6 14.98 6 16 C3.36 16 0.72 16 -2 16 C-1.67 13.36 -1.34 10.72 -1 8 C-1.99 8 -2.98 8 -4 8 C-4 7.01 -4 6.02 -4 5 C-3.01 4.67 -2.02 4.34 -1 4 C-0.26676204 1.98491642 -0.26676204 1.98491642 0 0 Z " fill="#8EAE2F" transform="translate(207,287)"/>
<path d="M0 0 C3.63 0 7.26 0 11 0 C11.125 7.625 11.125 7.625 10 11 C9.01 11 8.02 11 7 11 C7.33 8.36 7.66 5.72 8 3 C6.35 3 4.7 3 3 3 C3.020625 3.94875 3.04125 4.8975 3.0625 5.875 C3 9 3 9 2 11 C0.68 10.67 -0.64 10.34 -2 10 C-1.34 6.7 -0.68 3.4 0 0 Z " fill="#90AF33" transform="translate(216,292)"/>
<path d="M0 0 C0.99 0 1.98 0 3 0 C3 2.64 3 5.28 3 8 C4.65 8 6.3 8 8 8 C8 5.36 8 2.72 8 0 C8.99 0 9.98 0 11 0 C11.125 7.625 11.125 7.625 10 11 C6.37 11 2.74 11 -1 11 C-1.14285714 3.57142857 -1.14285714 3.57142857 0 0 Z " fill="#8EAE2F" transform="translate(292,292)"/>
<path d="M0 0 C3.63 0 7.26 0 11 0 C11 0.99 11 1.98 11 3 C8.36 3 5.72 3 3 3 C2.67 4.65 2.34 6.3 2 8 C4.64 8 7.28 8 10 8 C10 8.99 10 9.98 10 11 C6.37 11 2.74 11 -1 11 C-1.125 2.25 -1.125 2.25 0 0 Z " fill="#8CAD2C" transform="translate(274,292)"/>
<path d="M0 0 C7.59 0 15.18 0 23 0 C23 0.99 23 1.98 23 3 C15.41 3 7.82 3 0 3 C0 2.01 0 1.02 0 0 Z " fill="#FEFEFE" transform="translate(342,241)"/>
<path d="M0 0 C0.99 0 1.98 0 3 0 C2.85936865 2.29199177 2.71234057 4.58359186 2.5625 6.875 C2.48128906 8.15117187 2.40007812 9.42734375 2.31640625 10.7421875 C2 14 2 14 1 16 C-0.32 15.67 -1.64 15.34 -3 15 C-2.69163768 12.87439563 -2.37818386 10.74952935 -2.0625 8.625 C-1.88847656 7.44164062 -1.71445312 6.25828125 -1.53515625 5.0390625 C-1 2 -1 2 0 0 Z " fill="#96B43E" transform="translate(288,287)"/>
<path d="M0 0 C0 2.64 0 5.28 0 8 C-0.33 7.34 -0.66 6.68 -1 6 C-3.97 6 -6.94 6 -10 6 C-9.67 4.35 -9.34 2.7 -9 1 C-1.125 0 -1.125 0 0 0 Z " fill="#F8FAF3" transform="translate(286,294)"/>
<path d="M0 0 C0.66 0 1.32 0 2 0 C1.67 3.3 1.34 6.6 1 10 C0.34 10 -0.32 10 -1 10 C-1 9.34 -1 8.68 -1 8 C-2.32 8 -3.64 8 -5 8 C-5 6.35 -5 4.7 -5 3 C-3.35 3 -1.7 3 0 3 C0 2.01 0 1.02 0 0 Z " fill="#F7F9F0" transform="translate(214,292)"/>
<path d="M0 0 C0.99 0 1.98 0 3 0 C3.0270043 1.45823212 3.04639787 2.91660675 3.0625 4.375 C3.07410156 5.18710937 3.08570313 5.99921875 3.09765625 6.8359375 C3 9 3 9 2 11 C0.68 10.67 -0.64 10.34 -2 10 C-1.34 6.7 -0.68 3.4 0 0 Z " fill="#92B136" transform="translate(198,292)"/>
<path d="M0 0 C0.33 0 0.66 0 1 0 C1 1.98 1 3.96 1 6 C3.64 6 6.28 6 9 6 C9 6.33 9 6.66 9 7 C5.7 7 2.4 7 -1 7 C-1 5.68 -1 4.36 -1 3 C-3.31 3 -5.62 3 -8 3 C-8 2.67 -8 2.34 -8 2 C-6.865625 1.855625 -5.73125 1.71125 -4.5625 1.5625 C-1.19222799 1.38828522 -1.19222799 1.38828522 0 0 Z " fill="#E7EDD3" transform="translate(253,293)"/>
<path d="M0 0 C1.32 0 2.64 0 4 0 C4 1.65 4 3.3 4 5 C2.68 5 1.36 5 0 5 C0 3.35 0 1.7 0 0 Z " fill="#FAFBF6" transform="translate(308,295)"/>
</svg>
